<?xml version="1.0" standalone="no"?>
<!DOCTYPE svg PUBLIC "-//W3C//DTD SVG 20010904//EN"
 "http://www.w3.org/TR/2001/REC-SVG-20010904/DTD/svg10.dtd">
<svg version="1.0" xmlns="http://www.w3.org/2000/svg"
 width="64.000000pt" height="64.000000pt" viewBox="0 0 64.000000 64.000000"
 preserveAspectRatio="xMidYMid meet">

<g transform="translate(0.000000,64.000000) scale(0.100000,-0.100000)"
fill="#000000" stroke="none">
<path d="M86 528 c32 -46 82 -116 111 -157 29 -41 53 -78 53 -82 0 -5 -50 -65
-111 -134 -102 -116 -108 -125 -82 -124 23 0 45 21 123 110 52 60 97 109 100
109 3 -1 39 -50 80 -110 l75 -110 89 0 c69 0 86 3 79 13 -35 45 -223 316 -223
321 0 4 47 60 104 124 90 100 101 117 83 120 -22 4 -55 -27 -163 -152 l-51
-59 -74 107 -74 106 -88 0 -88 0 57 -82z m101 30 c18 -21 330 -457 347 -485 5
-10 -3 -13 -31 -13 l-38 0 -180 252 c-99 138 -181 255 -183 260 -2 4 12 8 30
8 23 0 41 -8 55 -22z"/>
</g>
</svg>
